<svg aria-hidden="true" style="position: absolute; width: 0; height: 0; overflow: hidden;" version="1.1" xmlns="http://www.w3.org/2000/svg" xmlns:xlink="http://www.w3.org/1999/xlink">
<defs>
<symbol id="Menu" viewBox="0 0 32 32">
<path fill="#be123c" style="fill: var(--color1, #be123c)" d="M32 16c0 8.837-7.163 16-16 16s-16-7.163-16-16c0-8.837 7.163-16 16-16s16 7.163 16 16z"></path>
<path fill="#fff" style="fill: var(--color2, #fff)" d="M8.533 12.8c0-0.589 0.478-1.067 1.067-1.067h12.8c0.589 0 1.067 0.478 1.067 1.067s-0.478 1.067-1.067 1.067h-12.8c-0.589 0-1.067-0.477-1.067-1.067z"></path>
<path fill="#fff" style="fill: var(--color2, #fff)" d="M8.533 19.2c0-0.589 0.478-1.067 1.067-1.067h12.8c0.589 0 1.067 0.478 1.067 1.067s-0.478 1.067-1.067 1.067h-12.8c-0.589 0-1.067-0.477-1.067-1.067z"></path>
</symbol>
<symbol id="mtv" viewBox="0 0 32 32">
<path d="M0 8.229h32v15.543h-32v-15.543z"></path>
</symbol>
<symbol id="Search" viewBox="0 0 32 32">
<path fill="none" stroke="#fff" style="stroke: var(--color2, #fff)" stroke-linejoin="round" stroke-linecap="round" stroke-miterlimit="4" stroke-width="4" d="M28 28l-8-8M22.667 13.333c0 5.155-4.179 9.333-9.333 9.333s-9.333-4.179-9.333-9.333c0-5.155 4.179-9.333 9.333-9.333s9.333 4.179 9.333 9.333z"></path>
</symbol>
<symbol id="tomato" viewBox="0 0 32 32">
<path d="M0.941 0h30.118v32h-30.118v-32z"></path>
</symbol>
<symbol id="tv" viewBox="0 0 32 32">
<path d="M0 0h32v32h-32v-32z"></path>
</symbol>
</defs>
</svg>
